<?xml version="1.0" encoding="UTF-8" standalone="no"?><!-- Generator: Gravit.io --><svg xmlns="http://www.w3.org/2000/svg" xmlns:xlink="http://www.w3.org/1999/xlink" style="isolation:isolate" viewBox="1225.032 207 694.968 684" width="694.968pt" height="684pt"><defs><clipPath id="_clipPath_xWfdaVdWzMM1GvgXnudPN4BwHZIYvavn"><rect x="1225.032" y="207" width="694.968" height="684"/></clipPath></defs><g clip-path="url(#_clipPath_xWfdaVdWzMM1GvgXnudPN4BwHZIYvavn)"><ellipse vector-effect="non-scaling-stroke" cx="1572.5160349854227" cy="549" rx="347.4839650145773" ry="342.0000000000001" fill="rgb(142,70,206)"/><clipPath id="_clipPath_g5ZLGZ7FtLKwdt12lmApmfvaURE35QyD"><ellipse vector-effect="non-scaling-stroke" cx="1572.5160349854227" cy="549" rx="347.4839650145773" ry="342.0000000000001" fill="rgb(142,70,206)"/></clipPath><g clip-path="url(#_clipPath_g5ZLGZ7FtLKwdt12lmApmfvaURE35QyD)"><circle vector-effect="non-scaling-stroke" cx="1575.0000000000002" cy="549" r="325" fill="rgb(235,235,235)"/><clipPath id="_clipPath_U3JRhDiZwf54cs2oQbWtXfZYXJ8WEYBn"><circle vector-effect="non-scaling-stroke" cx="1575.0000000000002" cy="549" r="325" fill="rgb(235,235,235)"/></clipPath><g clip-path="url(#_clipPath_U3JRhDiZwf54cs2oQbWtXfZYXJ8WEYBn)"><rect x="1207" y="206" width="733" height="740" transform="matrix(1,0,0,1,0,0)" fill="rgb(193,123,255)"/><clipPath id="_clipPath_nZNLR4xSnUGoloUR7PWOh5DeAih7KAK5"><rect x="1207" y="206" width="733" height="740" transform="matrix(1,0,0,1,0,0)" fill="rgb(193,123,255)"/></clipPath><g clip-path="url(#_clipPath_nZNLR4xSnUGoloUR7PWOh5DeAih7KAK5)"><path d=" M 1842.25 871.625 L 1767.5 871.625 L 1767.5 871.625 L 1767.5 902.375 L 1842.25 902.375 L 1842.25 871.625 Z  M 1855.5 871.625 L 1948.875 871.625 L 1948.875 858.375 L 1855.5 858.375 L 1855.5 827.625 L 1948.875 827.625 L 1948.875 814.375 L 1855.5 814.375 L 1855.5 783.625 L 1948.875 783.625 L 1948.875 770.375 L 1855.5 770.375 L 1855.5 739.625 L 1948.875 739.625 L 1948.875 726.375 L 1855.5 726.375 L 1855.5 695.625 L 1948.875 695.625 L 1948.875 682.375 L 1855.5 682.375 L 1855.5 651.625 L 1948.875 651.625 L 1948.875 638.375 L 1855.5 638.375 L 1855.5 563.625 L 1948.875 563.625 L 1948.875 550.375 L 1855.5 550.375 L 1855.5 475.625 L 1948.875 475.625 L 1948.875 462.375 L 1855.5 462.375 L 1855.5 387.625 L 1948.875 387.625 L 1948.875 374.375 L 1855.5 374.375 L 1855.5 299.625 L 1948.875 299.625 L 1948.875 286.375 L 1855.5 286.375 L 1855.5 202 L 1842.25 202 L 1842.25 286.375 L 1767.5 286.375 L 1767.5 202 L 1754.25 202 L 1754.25 286.375 L 1679.5 286.375 L 1679.5 202 L 1666.25 202 L 1666.25 286.375 L 1591.5 286.375 L 1591.5 202 L 1578.25 202 L 1578.25 286.375 L 1503.5 286.375 L 1503.5 202 L 1490.25 202 L 1490.25 286.375 L 1415.5 286.375 L 1415.5 202 L 1402.25 202 L 1402.25 286.375 L 1327.5 286.375 L 1327.5 202 L 1314.25 202 L 1314.25 286.375 L 1239.5 286.375 L 1239.5 202 L 1226.25 202 L 1226.25 286.375 L 1194.875 286.375 L 1194.875 299.625 L 1226.25 299.625 L 1226.25 374.375 L 1194.875 374.375 L 1194.875 387.625 L 1226.25 387.625 L 1226.25 462.375 L 1194.875 462.375 L 1194.875 475.625 L 1226.25 475.625 L 1226.25 550.375 L 1194.875 550.375 L 1194.875 563.625 L 1226.25 563.625 L 1226.25 638.375 L 1194.875 638.375 L 1194.875 651.625 L 1226.25 651.625 L 1226.25 682.375 L 1194.875 682.375 L 1194.875 695.625 L 1226.25 695.625 L 1226.25 726.375 L 1194.875 726.375 L 1194.875 739.625 L 1226.25 739.625 L 1226.25 770.375 L 1194.875 770.375 L 1194.875 783.625 L 1226.25 783.625 L 1226.25 814.375 L 1194.875 814.375 L 1194.875 827.625 L 1226.25 827.625 L 1226.25 858.375 L 1194.875 858.375 L 1194.875 871.625 L 1226.25 871.625 L 1226.25 902.375 L 1194.875 902.375 L 1194.875 915.625 L 1226.25 915.625 L 1226.25 956 L 1239.5 956 L 1239.5 915.625 L 1314.25 915.625 L 1314.25 956 L 1327.5 956 L 1327.5 915.625 L 1402.25 915.625 L 1402.25 956 L 1415.5 956 L 1415.5 915.625 L 1490.25 915.625 L 1490.25 956 L 1503.5 956 L 1503.5 915.625 L 1578.25 915.625 L 1578.25 956 L 1591.5 956 L 1591.5 915.625 L 1666.25 915.625 L 1666.25 956 L 1679.5 956 L 1679.5 915.625 L 1754.25 915.625 L 1754.25 956 L 1767.5 956 L 1767.5 915.625 L 1842.25 915.625 L 1842.25 956 L 1855.5 956 L 1855.5 915.625 L 1948.875 915.625 L 1948.875 902.375 L 1855.5 902.375 L 1855.5 871.625 Z  M 1842.25 858.375 L 1767.5 858.375 L 1767.5 827.625 L 1842.25 827.625 L 1842.25 858.375 Z  M 1842.25 814.375 L 1767.5 814.375 L 1767.5 783.625 L 1842.25 783.625 L 1842.25 814.375 Z  M 1842.25 770.375 L 1767.5 770.375 L 1767.5 739.625 L 1842.25 739.625 L 1842.25 770.375 Z  M 1842.25 726.375 L 1767.5 726.375 L 1767.5 695.625 L 1842.25 695.625 L 1842.25 726.375 Z  M 1842.25 682.375 L 1767.5 682.375 L 1767.5 651.625 L 1842.25 651.625 L 1842.25 682.375 Z  M 1842.25 638.375 L 1767.5 638.375 L 1767.5 563.625 L 1842.25 563.625 L 1842.25 638.375 Z  M 1842.25 550.375 L 1767.5 550.375 L 1767.5 475.625 L 1842.25 475.625 L 1842.25 550.375 Z  M 1842.25 462.375 L 1767.5 462.375 L 1767.5 387.625 L 1842.25 387.625 L 1842.25 462.375 Z  M 1842.25 374.375 L 1767.5 374.375 L 1767.5 299.625 L 1842.25 299.625 L 1842.25 374.375 Z  M 1754.25 871.625 L 1679.5 871.625 L 1679.5 871.625 L 1679.5 902.375 L 1754.25 902.375 L 1754.25 871.625 L 1754.25 871.625 Z  M 1754.25 858.375 L 1679.5 858.375 L 1679.5 827.625 L 1754.25 827.625 L 1754.25 858.375 L 1754.25 858.375 Z  M 1754.25 814.375 L 1679.5 814.375 L 1679.5 783.625 L 1754.25 783.625 L 1754.25 814.375 L 1754.25 814.375 Z  M 1754.25 770.375 L 1679.5 770.375 L 1679.5 739.625 L 1754.25 739.625 L 1754.25 770.375 L 1754.25 770.375 Z  M 1754.25 726.375 L 1679.5 726.375 L 1679.5 695.625 L 1754.25 695.625 L 1754.25 726.375 L 1754.25 726.375 Z  M 1754.25 682.375 L 1679.5 682.375 L 1679.5 651.625 L 1754.25 651.625 L 1754.25 682.375 L 1754.25 682.375 Z  M 1754.25 638.375 L 1679.5 638.375 L 1679.5 563.625 L 1754.25 563.625 L 1754.25 638.375 L 1754.25 638.375 Z  M 1754.25 550.375 L 1679.5 550.375 L 1679.5 475.625 L 1754.25 475.625 L 1754.25 550.375 L 1754.25 550.375 Z  M 1754.25 462.375 L 1679.5 462.375 L 1679.5 387.625 L 1754.25 387.625 L 1754.25 462.375 L 1754.25 462.375 Z  M 1754.25 374.375 L 1679.5 374.375 L 1679.5 299.625 L 1754.25 299.625 L 1754.25 374.375 L 1754.25 374.375 Z  M 1666.25 871.625 L 1591.5 871.625 L 1591.5 871.625 L 1591.5 902.375 L 1666.25 902.375 L 1666.25 871.625 L 1666.25 871.625 L 1666.25 871.625 Z  M 1666.25 858.375 L 1591.5 858.375 L 1591.5 827.625 L 1666.25 827.625 L 1666.25 858.375 L 1666.25 858.375 L 1666.25 858.375 Z  M 1666.25 814.375 L 1591.5 814.375 L 1591.5 783.625 L 1666.25 783.625 L 1666.25 814.375 L 1666.25 814.375 L 1666.25 814.375 Z  M 1666.25 770.375 L 1591.5 770.375 L 1591.5 739.625 L 1666.25 739.625 L 1666.25 770.375 L 1666.25 770.375 L 1666.25 770.375 Z  M 1666.25 726.375 L 1591.5 726.375 L 1591.5 695.625 L 1666.25 695.625 L 1666.25 726.375 L 1666.25 726.375 L 1666.25 726.375 Z  M 1666.25 682.375 L 1591.5 682.375 L 1591.5 651.625 L 1666.25 651.625 L 1666.25 682.375 L 1666.25 682.375 L 1666.25 682.375 Z  M 1666.25 638.375 L 1591.5 638.375 L 1591.5 563.625 L 1666.25 563.625 L 1666.25 638.375 L 1666.25 638.375 L 1666.25 638.375 Z  M 1666.25 550.375 L 1591.5 550.375 L 1591.5 475.625 L 1666.25 475.625 L 1666.25 550.375 L 1666.25 550.375 L 1666.25 550.375 Z  M 1666.25 462.375 L 1591.5 462.375 L 1591.5 387.625 L 1666.25 387.625 L 1666.25 462.375 L 1666.25 462.375 L 1666.25 462.375 Z  M 1666.25 374.375 L 1591.5 374.375 L 1591.5 299.625 L 1666.25 299.625 L 1666.25 374.375 L 1666.25 374.375 L 1666.25 374.375 Z  M 1578.25 871.625 L 1503.5 871.625 L 1503.5 871.625 L 1503.5 902.375 L 1578.25 902.375 L 1578.25 871.625 L 1578.25 871.625 L 1578.25 871.625 L 1578.25 871.625 Z  M 1578.25 858.375 L 1503.5 858.375 L 1503.5 827.625 L 1578.25 827.625 L 1578.25 858.375 L 1578.25 858.375 L 1578.25 858.375 L 1578.25 858.375 Z  M 1578.25 814.375 L 1503.5 814.375 L 1503.5 783.625 L 1578.25 783.625 L 1578.25 814.375 L 1578.25 814.375 L 1578.25 814.375 L 1578.25 814.375 Z  M 1578.25 770.375 L 1503.5 770.375 L 1503.5 739.625 L 1578.25 739.625 L 1578.25 770.375 L 1578.25 770.375 L 1578.25 770.375 L 1578.25 770.375 Z  M 1578.25 726.375 L 1503.5 726.375 L 1503.5 695.625 L 1578.25 695.625 L 1578.25 726.375 L 1578.25 726.375 L 1578.25 726.375 L 1578.25 726.375 Z  M 1578.25 682.375 L 1503.5 682.375 L 1503.5 651.625 L 1578.25 651.625 L 1578.25 682.375 L 1578.25 682.375 L 1578.25 682.375 L 1578.25 682.375 Z  M 1578.25 638.375 L 1503.5 638.375 L 1503.5 563.625 L 1578.25 563.625 L 1578.25 638.375 L 1578.25 638.375 L 1578.25 638.375 L 1578.25 638.375 Z  M 1578.25 550.375 L 1503.5 550.375 L 1503.5 475.625 L 1578.25 475.625 L 1578.25 550.375 L 1578.25 550.375 L 1578.25 550.375 L 1578.25 550.375 Z  M 1578.25 462.375 L 1503.5 462.375 L 1503.5 387.625 L 1578.25 387.625 L 1578.25 462.375 L 1578.25 462.375 L 1578.25 462.375 L 1578.25 462.375 Z  M 1578.25 374.375 L 1503.5 374.375 L 1503.5 299.625 L 1578.25 299.625 L 1578.25 374.375 L 1578.25 374.375 L 1578.25 374.375 L 1578.25 374.375 Z  M 1490.25 871.625 L 1415.5 871.625 L 1415.5 871.625 L 1415.5 902.375 L 1490.25 902.375 L 1490.25 871.625 L 1490.25 871.625 L 1490.25 871.625 L 1490.25 871.625 L 1490.25 871.625 Z  M 1490.25 858.375 L 1415.5 858.375 L 1415.5 827.625 L 1490.25 827.625 L 1490.25 858.375 L 1490.25 858.375 L 1490.25 858.375 L 1490.25 858.375 L 1490.25 858.375 Z  M 1490.25 814.375 L 1415.5 814.375 L 1415.5 783.625 L 1490.25 783.625 L 1490.25 814.375 L 1490.25 814.375 L 1490.25 814.375 L 1490.25 814.375 L 1490.25 814.375 Z  M 1490.25 770.375 L 1415.5 770.375 L 1415.5 739.625 L 1490.25 739.625 L 1490.25 770.375 L 1490.25 770.375 L 1490.25 770.375 L 1490.25 770.375 L 1490.25 770.375 Z  M 1490.25 726.375 L 1415.5 726.375 L 1415.5 695.625 L 1490.25 695.625 L 1490.25 726.375 L 1490.25 726.375 L 1490.25 726.375 L 1490.25 726.375 L 1490.25 726.375 Z  M 1490.25 682.375 L 1415.5 682.375 L 1415.5 651.625 L 1490.25 651.625 L 1490.25 682.375 L 1490.25 682.375 L 1490.25 682.375 L 1490.25 682.375 L 1490.25 682.375 Z  M 1490.25 638.375 L 1415.5 638.375 L 1415.5 563.625 L 1490.25 563.625 L 1490.25 638.375 L 1490.25 638.375 L 1490.25 638.375 L 1490.25 638.375 L 1490.25 638.375 Z  M 1490.25 550.375 L 1415.5 550.375 L 1415.5 475.625 L 1490.25 475.625 L 1490.25 550.375 L 1490.25 550.375 L 1490.25 550.375 L 1490.25 550.375 L 1490.25 550.375 Z  M 1490.25 462.375 L 1415.5 462.375 L 1415.5 387.625 L 1490.25 387.625 L 1490.25 462.375 L 1490.25 462.375 L 1490.25 462.375 L 1490.25 462.375 L 1490.25 462.375 Z  M 1490.25 374.375 L 1415.5 374.375 L 1415.5 299.625 L 1490.25 299.625 L 1490.25 374.375 L 1490.25 374.375 L 1490.25 374.375 L 1490.25 374.375 L 1490.25 374.375 Z  M 1402.25 871.625 L 1327.5 871.625 L 1327.5 871.625 L 1327.5 902.375 L 1402.25 902.375 L 1402.25 871.625 L 1402.25 871.625 L 1402.25 871.625 L 1402.25 871.625 L 1402.25 871.625 L 1402.25 871.625 Z  M 1402.25 858.375 L 1327.5 858.375 L 1327.5 827.625 L 1402.25 827.625 L 1402.25 858.375 L 1402.25 858.375 L 1402.25 858.375 L 1402.25 858.375 L 1402.25 858.375 L 1402.25 858.375 Z  M 1402.25 814.375 L 1327.5 814.375 L 1327.5 783.625 L 1402.25 783.625 L 1402.25 814.375 L 1402.25 814.375 L 1402.25 814.375 L 1402.25 814.375 L 1402.25 814.375 L 1402.25 814.375 Z  M 1402.25 770.375 L 1327.5 770.375 L 1327.5 739.625 L 1402.25 739.625 L 1402.25 770.375 L 1402.25 770.375 L 1402.25 770.375 L 1402.25 770.375 L 1402.25 770.375 L 1402.25 770.375 Z  M 1402.25 726.375 L 1327.5 726.375 L 1327.5 695.625 L 1402.25 695.625 L 1402.25 726.375 L 1402.25 726.375 L 1402.25 726.375 L 1402.25 726.375 L 1402.25 726.375 L 1402.25 726.375 Z  M 1402.25 682.375 L 1327.5 682.375 L 1327.5 651.625 L 1402.25 651.625 L 1402.25 682.375 L 1402.25 682.375 L 1402.25 682.375 L 1402.25 682.375 L 1402.25 682.375 L 1402.25 682.375 Z  M 1402.25 638.375 L 1327.5 638.375 L 1327.5 563.625 L 1402.25 563.625 L 1402.25 638.375 L 1402.25 638.375 L 1402.25 638.375 L 1402.25 638.375 L 1402.25 638.375 L 1402.25 638.375 Z  M 1402.25 550.375 L 1327.5 550.375 L 1327.5 475.625 L 1402.25 475.625 L 1402.25 550.375 L 1402.25 550.375 L 1402.25 550.375 L 1402.25 550.375 L 1402.25 550.375 L 1402.25 550.375 Z  M 1402.25 462.375 L 1327.5 462.375 L 1327.5 387.625 L 1402.25 387.625 L 1402.25 462.375 L 1402.25 462.375 L 1402.25 462.375 L 1402.25 462.375 L 1402.25 462.375 L 1402.25 462.375 Z  M 1402.25 374.375 L 1327.5 374.375 L 1327.5 299.625 L 1402.25 299.625 L 1402.25 374.375 L 1402.25 374.375 L 1402.25 374.375 L 1402.25 374.375 L 1402.25 374.375 L 1402.25 374.375 Z  M 1314.25 871.625 L 1239.5 871.625 L 1239.5 902.375 L 1314.25 902.375 L 1314.25 871.625 L 1314.25 871.625 L 1314.25 871.625 L 1314.25 871.625 L 1314.25 871.625 L 1314.25 871.625 L 1314.25 871.625 Z  M 1314.25 858.375 L 1239.5 858.375 L 1239.5 827.625 L 1314.25 827.625 L 1314.25 858.375 L 1314.25 858.375 L 1314.25 858.375 L 1314.25 858.375 L 1314.25 858.375 L 1314.25 858.375 L 1314.25 858.375 Z  M 1314.25 814.375 L 1239.5 814.375 L 1239.5 783.625 L 1314.25 783.625 L 1314.25 814.375 L 1314.25 814.375 L 1314.25 814.375 L 1314.25 814.375 L 1314.25 814.375 L 1314.25 814.375 L 1314.25 814.375 Z  M 1314.25 770.375 L 1239.5 770.375 L 1239.5 739.625 L 1314.25 739.625 L 1314.25 770.375 L 1314.25 770.375 L 1314.25 770.375 L 1314.25 770.375 L 1314.25 770.375 L 1314.25 770.375 L 1314.25 770.375 Z  M 1314.25 726.375 L 1239.5 726.375 L 1239.5 695.625 L 1314.25 695.625 L 1314.25 726.375 L 1314.25 726.375 L 1314.25 726.375 L 1314.25 726.375 L 1314.25 726.375 L 1314.25 726.375 L 1314.25 726.375 Z  M 1314.25 682.375 L 1239.5 682.375 L 1239.5 651.625 L 1314.25 651.625 L 1314.25 682.375 L 1314.25 682.375 L 1314.25 682.375 L 1314.25 682.375 L 1314.25 682.375 L 1314.25 682.375 L 1314.25 682.375 Z  M 1314.25 638.375 L 1239.5 638.375 L 1239.5 563.625 L 1314.25 563.625 L 1314.25 638.375 L 1314.25 638.375 L 1314.25 638.375 L 1314.25 638.375 L 1314.25 638.375 L 1314.25 638.375 L 1314.25 638.375 Z  M 1314.25 550.375 L 1239.5 550.375 L 1239.5 475.625 L 1314.25 475.625 L 1314.25 550.375 L 1314.25 550.375 L 1314.25 550.375 L 1314.25 550.375 L 1314.25 550.375 L 1314.25 550.375 L 1314.25 550.375 Z  M 1314.25 462.375 L 1239.5 462.375 L 1239.5 387.625 L 1314.25 387.625 L 1314.25 462.375 L 1314.25 462.375 L 1314.25 462.375 L 1314.25 462.375 L 1314.25 462.375 L 1314.25 462.375 L 1314.25 462.375 Z  M 1314.25 374.375 L 1239.5 374.375 L 1239.5 299.625 L 1314.25 299.625 L 1314.25 374.375 L 1314.25 374.375 L 1314.25 374.375 L 1314.25 374.375 L 1314.25 374.375 L 1314.25 374.375 L 1314.25 374.375 Z " fill-rule="evenodd" fill="rgb(255,255,255)"/></g><ellipse vector-effect="non-scaling-stroke" cx="1575.5000000000002" cy="837.9999999999998" rx="305.4999999999998" ry="357.9999999999998" fill="rgb(255,255,255)"/><ellipse vector-effect="non-scaling-stroke" cx="1577.5000000000002" cy="674.4999999999995" rx="216.00000000000045" ry="163.49999999999955" fill="rgb(193,123,255)"/></g><path d=" M 1431.988 644.72 C 1429.035 626.684 1439.354 610.454 1462.59 601.753 C 1495.316 589.499 1522.414 612.612 1522.219 632.817 C 1521.704 686.168 1506.092 680.431 1504.949 718.256 Q 1504.569 730.845 1509.843 751.688 L 1485.993 758.428 Q 1480.233 740.267 1479.363 728.322 C 1479.009 723.46 1478.157 706.001 1482.869 694.44 C 1503.35 644.2 1490.326 631.11 1477.469 628.343 C 1459.375 624.448 1451.983 651.349 1443.866 652.982 C 1435.75 654.615 1432.751 649.38 1431.988 644.72 Z  M 1489.573 784.087 C 1488.127 775.258 1494.122 766.916 1502.951 765.47 C 1511.781 764.024 1520.123 770.019 1521.568 778.848 C 1523.014 787.678 1517.019 796.02 1508.19 797.465 C 1499.361 798.911 1491.019 792.916 1489.573 784.087 Z " fill-rule="evenodd" fill="rgb(255,255,255)"/><path d=" M 1641.937 613.997 C 1648.747 597.037 1665.978 588.493 1690.363 593.077 C 1724.706 599.534 1735.925 633.336 1725.298 650.523 C 1697.24 695.902 1686.853 682.912 1666.294 714.682 Q 1659.451 725.256 1653.174 745.819 L 1629.28 739.24 Q 1633.753 720.72 1639.192 710.05 C 1641.406 705.706 1649.715 690.327 1659.731 682.876 C 1703.262 650.494 1698.896 632.552 1689.329 623.529 C 1675.864 610.83 1655.613 630.019 1647.823 627.214 C 1640.034 624.41 1640.178 618.378 1641.937 613.997 Z  M 1619.059 763.046 C 1622.393 754.743 1631.84 750.709 1640.143 754.043 C 1648.445 757.377 1652.479 766.825 1649.146 775.127 C 1645.812 783.43 1636.364 787.463 1628.062 784.13 C 1619.759 780.796 1615.725 771.348 1619.059 763.046 Z " fill-rule="evenodd" fill="rgb(255,255,255)"/><path d=" M 1518.448 581.743 C 1518.448 559.569 1533.986 542.158 1563.514 536.295 C 1605.102 528.038 1633.017 561.025 1628.822 585.181 C 1617.746 648.96 1600.178 639.031 1591.394 684.097 Q 1588.471 699.096 1590.7 725.087 L 1560.821 728.482 Q 1557.484 705.607 1558.784 691.134 C 1559.313 685.242 1561.716 664.17 1569.625 651.252 C 1603.997 595.11 1590.969 576.884 1576.118 571.05 C 1555.216 562.839 1541.09 593.601 1531.051 593.965 C 1521.013 594.328 1518.448 587.472 1518.448 581.743 Z  M 1560.077 759.907 C 1560.077 749.051 1568.89 740.238 1579.746 740.238 C 1590.601 740.238 1599.414 749.051 1599.414 759.907 C 1599.414 770.762 1590.601 779.576 1579.746 779.576 C 1568.89 779.576 1560.077 770.762 1560.077 759.907 Z " fill-rule="evenodd" fill="rgb(255,255,255)"/></g></g></svg>