<?xml version="1.0" encoding="UTF-8" standalone="no"?><!-- Generator: Gravit.io --><svg xmlns="http://www.w3.org/2000/svg" xmlns:xlink="http://www.w3.org/1999/xlink" style="isolation:isolate" viewBox="1200 182 746 746" width="746pt" height="746pt"><defs><clipPath id="_clipPath_nbUnd8eqjXUkUFsYKNZqKFY5YD1VDra1"><rect x="1200" y="182" width="746" height="746"/></clipPath></defs><g clip-path="url(#_clipPath_nbUnd8eqjXUkUFsYKNZqKFY5YD1VDra1)"><circle vector-effect="non-scaling-stroke" cx="1572.999999999999" cy="554.9999999999998" r="373.0000000000002" fill="rgb(142,70,206)"/><circle vector-effect="non-scaling-stroke" cx="1575.0000000000002" cy="549" r="325" fill="rgb(235,235,235)"/><clipPath id="_clipPath_gNV44WcQ4spLzMOO8yO8yA1YISk86IPo"><circle vector-effect="non-scaling-stroke" cx="1575.0000000000002" cy="549" r="325" fill="rgb(235,235,235)"/></clipPath><g clip-path="url(#_clipPath_gNV44WcQ4spLzMOO8yO8yA1YISk86IPo)"><rect x="1207" y="208" width="733" height="740" transform="matrix(1,0,0,1,0,0)" fill="rgb(193,123,255)"/><clipPath id="_clipPath_HgvMDRYFTlN22oHYjo6z67wYcXR9caDw"><rect x="1207" y="208" width="733" height="740" transform="matrix(1,0,0,1,0,0)" fill="rgb(193,123,255)"/></clipPath><g clip-path="url(#_clipPath_HgvMDRYFTlN22oHYjo6z67wYcXR9caDw)"><path d=" M 1842.25 917.625 L 1771.5 917.625 L 1771.5 959 L 1734.375 959 L 1734.375 917.625 L 1669.35 917.625 L 1669.35 959 L 1632.25 959 L 1632.25 917.625 L 1632.25 917.625 L 1564.35 917.625 L 1564.35 961 L 1527.25 961 L 1527.25 917.625 L 1455.35 917.625 L 1455.35 958 L 1418.25 958 L 1418.25 917.625 L 1418.25 917.625 L 1351.35 917.625 L 1351.35 958 L 1314.25 958 L 1314.25 917.625 L 1239.5 917.625 L 1239.5 958 L 1226.25 958 L 1226.25 917.625 L 1194.875 917.625 L 1194.875 904.375 L 1226.25 904.375 L 1226.25 904.375 L 1226.25 873.625 L 1194.875 873.625 L 1194.875 860.375 L 1226.25 860.375 L 1226.25 829.625 L 1194.875 829.625 L 1194.875 816.375 L 1226.25 816.375 L 1226.25 816.375 L 1226.25 785.625 L 1194.875 785.625 L 1194.875 772.375 L 1226.25 772.375 L 1226.25 741.625 L 1194.875 741.625 L 1194.875 728.375 L 1226.25 728.375 L 1226.25 728.375 L 1226.25 677.475 L 1194.875 677.475 L 1194.875 640.375 L 1226.25 640.375 L 1226.25 589.475 L 1194.875 589.475 L 1194.875 552.375 L 1226.25 552.375 L 1226.25 552.375 L 1226.25 552.375 L 1226.25 552.375 L 1226.25 501.475 L 1194.875 501.475 L 1194.875 464.375 L 1226.25 464.375 L 1226.25 413.475 L 1194.875 413.475 L 1194.875 376.375 L 1226.25 376.375 L 1226.25 325.475 L 1194.875 325.475 L 1194.875 288.375 L 1226.25 288.375 L 1226.25 204 L 1239.5 204 L 1239.5 288.375 L 1314.25 288.375 L 1314.25 288.375 L 1314.25 204 L 1351.35 204 L 1351.35 288.375 L 1418.25 288.375 L 1418.25 204 L 1455.35 204 L 1455.35 288.375 L 1527.25 288.375 L 1527.25 288.375 L 1527.25 207 L 1564.35 207 L 1564.35 288.375 L 1632.25 288.375 L 1632.25 205 L 1669.35 205 L 1669.35 288.375 L 1734.375 288.375 L 1734.375 288.375 L 1734.375 205 L 1771.5 205 L 1771.5 288.375 L 1842.25 288.375 L 1842.25 204 L 1879.35 204 L 1879.35 288.375 L 1948.875 288.375 L 1948.875 325.475 L 1879.35 325.475 L 1879.35 376.375 L 1948.875 376.375 L 1948.875 413.475 L 1879.35 413.475 L 1879.35 464.375 L 1948.875 464.375 L 1948.875 501.475 L 1879.35 501.475 L 1879.35 552.375 L 1948.875 552.375 L 1948.875 589.475 L 1879.35 589.475 L 1879.35 640.375 L 1948.875 640.375 L 1948.875 677.475 L 1879.35 677.475 L 1879.35 728.375 L 1948.875 728.375 L 1948.875 741.625 L 1879.35 741.625 L 1879.35 772.375 L 1948.875 772.375 L 1948.875 785.625 L 1879.35 785.625 L 1879.35 816.375 L 1948.875 816.375 L 1948.875 829.625 L 1879.35 829.625 L 1879.35 860.375 L 1948.875 860.375 L 1948.875 873.625 L 1879.35 873.625 L 1879.35 904.375 L 1948.875 904.375 L 1948.875 917.625 L 1879.35 917.625 L 1879.35 958 L 1842.25 958 L 1842.25 917.625 Z  M 1842.25 904.375 L 1771.5 904.375 L 1771.5 873.625 L 1842.25 873.625 L 1842.25 904.375 Z  M 1842.25 860.375 L 1771.5 860.375 L 1771.5 829.625 L 1842.25 829.625 L 1842.25 860.375 Z  M 1842.25 816.375 L 1771.5 816.375 L 1771.5 785.625 L 1842.25 785.625 L 1842.25 816.375 Z  M 1842.25 772.375 L 1771.5 772.375 L 1771.5 741.625 L 1842.25 741.625 L 1842.25 772.375 Z  M 1842.25 728.375 L 1771.5 728.375 L 1771.5 677.475 L 1842.25 677.475 L 1842.25 728.375 Z  M 1842.25 640.375 L 1771.5 640.375 L 1771.5 589.475 L 1842.25 589.475 L 1842.25 640.375 Z  M 1842.25 552.375 L 1771.5 552.375 L 1771.5 501.475 L 1842.25 501.475 L 1842.25 552.375 Z  M 1842.25 464.375 L 1771.5 464.375 L 1771.5 413.475 L 1842.25 413.475 L 1842.25 464.375 Z  M 1842.25 376.375 L 1771.5 376.375 L 1771.5 325.475 L 1842.25 325.475 L 1842.25 376.375 Z  M 1734.375 325.475 L 1669.35 325.475 L 1669.35 376.375 L 1734.375 376.375 L 1734.375 325.475 L 1734.375 325.475 Z  M 1734.375 413.475 L 1669.35 413.475 L 1669.35 464.375 L 1734.375 464.375 L 1734.375 413.475 L 1734.375 413.475 Z  M 1734.375 501.475 L 1669.35 501.475 L 1669.35 552.375 L 1734.375 552.375 L 1734.375 501.475 L 1734.375 501.475 Z  M 1734.375 589.475 L 1669.35 589.475 L 1669.35 640.375 L 1734.375 640.375 L 1734.375 589.475 L 1734.375 589.475 Z  M 1734.375 677.475 L 1669.35 677.475 L 1669.35 728.375 L 1734.375 728.375 L 1734.375 677.475 L 1734.375 677.475 Z  M 1734.375 741.625 L 1669.35 741.625 L 1669.35 772.375 L 1734.375 772.375 L 1734.375 741.625 L 1734.375 741.625 Z  M 1734.375 785.625 L 1669.35 785.625 L 1669.35 816.375 L 1734.375 816.375 L 1734.375 785.625 L 1734.375 785.625 Z  M 1734.375 829.625 L 1669.35 829.625 L 1669.35 860.375 L 1734.375 860.375 L 1734.375 829.625 L 1734.375 829.625 Z  M 1734.375 873.625 L 1669.35 873.625 L 1669.35 904.375 L 1734.375 904.375 L 1734.375 873.625 L 1734.375 873.625 Z  M 1632.25 904.375 L 1564.35 904.375 L 1564.35 873.625 L 1632.25 873.625 L 1632.25 904.375 L 1632.25 904.375 L 1632.25 904.375 Z  M 1632.25 860.375 L 1564.35 860.375 L 1564.35 829.625 L 1632.25 829.625 L 1632.25 860.375 L 1632.25 860.375 L 1632.25 860.375 Z  M 1632.25 816.375 L 1564.35 816.375 L 1564.35 785.625 L 1632.25 785.625 L 1632.25 816.375 L 1632.25 816.375 L 1632.25 816.375 Z  M 1632.25 772.375 L 1564.35 772.375 L 1564.35 741.625 L 1632.25 741.625 L 1632.25 772.375 L 1632.25 772.375 L 1632.25 772.375 Z  M 1632.25 728.375 L 1564.35 728.375 L 1564.35 677.475 L 1632.25 677.475 L 1632.25 728.375 L 1632.25 728.375 L 1632.25 728.375 Z  M 1632.25 640.375 L 1564.35 640.375 L 1564.35 589.475 L 1632.25 589.475 L 1632.25 640.375 L 1632.25 640.375 L 1632.25 640.375 Z  M 1632.25 552.375 L 1564.35 552.375 L 1564.35 501.475 L 1632.25 501.475 L 1632.25 552.375 L 1632.25 552.375 L 1632.25 552.375 Z  M 1632.25 464.375 L 1564.35 464.375 L 1564.35 413.475 L 1632.25 413.475 L 1632.25 464.375 L 1632.25 464.375 L 1632.25 464.375 Z  M 1632.25 376.375 L 1564.35 376.375 L 1564.35 325.475 L 1632.25 325.475 L 1632.25 376.375 L 1632.25 376.375 L 1632.25 376.375 Z  M 1527.25 325.475 L 1455.35 325.475 L 1455.35 376.375 L 1527.25 376.375 L 1527.25 325.475 L 1527.25 325.475 L 1527.25 325.475 L 1527.25 325.475 Z  M 1527.25 413.475 L 1455.35 413.475 L 1455.35 464.375 L 1527.25 464.375 L 1527.25 413.475 L 1527.25 413.475 L 1527.25 413.475 L 1527.25 413.475 Z  M 1527.25 501.475 L 1455.35 501.475 L 1455.35 552.375 L 1527.25 552.375 L 1527.25 501.475 L 1527.25 501.475 L 1527.25 501.475 L 1527.25 501.475 Z  M 1527.25 589.475 L 1455.35 589.475 L 1455.35 640.375 L 1527.25 640.375 L 1527.25 589.475 L 1527.25 589.475 L 1527.25 589.475 L 1527.25 589.475 Z  M 1527.25 677.475 L 1455.35 677.475 L 1455.35 728.375 L 1527.25 728.375 L 1527.25 677.475 L 1527.25 677.475 L 1527.25 677.475 L 1527.25 677.475 Z  M 1527.25 741.625 L 1455.35 741.625 L 1455.35 772.375 L 1527.25 772.375 L 1527.25 741.625 L 1527.25 741.625 L 1527.25 741.625 L 1527.25 741.625 Z  M 1527.25 785.625 L 1455.35 785.625 L 1455.35 816.375 L 1527.25 816.375 L 1527.25 785.625 L 1527.25 785.625 L 1527.25 785.625 L 1527.25 785.625 Z  M 1527.25 829.625 L 1455.35 829.625 L 1455.35 860.375 L 1527.25 860.375 L 1527.25 829.625 L 1527.25 829.625 L 1527.25 829.625 L 1527.25 829.625 Z  M 1527.25 873.625 L 1455.35 873.625 L 1455.35 904.375 L 1527.25 904.375 L 1527.25 873.625 L 1527.25 873.625 L 1527.25 873.625 L 1527.25 873.625 Z  M 1418.25 904.375 L 1351.35 904.375 L 1351.35 873.625 L 1418.25 873.625 L 1418.25 904.375 L 1418.25 904.375 L 1418.25 904.375 L 1418.25 904.375 L 1418.25 904.375 Z  M 1418.25 860.375 L 1351.35 860.375 L 1351.35 829.625 L 1418.25 829.625 L 1418.25 860.375 L 1418.25 860.375 L 1418.25 860.375 L 1418.25 860.375 L 1418.25 860.375 Z  M 1418.25 816.375 L 1351.35 816.375 L 1351.35 785.625 L 1418.25 785.625 L 1418.25 816.375 L 1418.25 816.375 L 1418.25 816.375 L 1418.25 816.375 L 1418.25 816.375 Z  M 1418.25 772.375 L 1351.35 772.375 L 1351.35 741.625 L 1418.25 741.625 L 1418.25 772.375 L 1418.25 772.375 L 1418.25 772.375 L 1418.25 772.375 L 1418.25 772.375 Z  M 1418.25 728.375 L 1351.35 728.375 L 1351.35 677.475 L 1418.25 677.475 L 1418.25 728.375 L 1418.25 728.375 L 1418.25 728.375 L 1418.25 728.375 L 1418.25 728.375 Z  M 1418.25 640.375 L 1351.35 640.375 L 1351.35 589.475 L 1418.25 589.475 L 1418.25 640.375 L 1418.25 640.375 L 1418.25 640.375 L 1418.25 640.375 L 1418.25 640.375 Z  M 1418.25 552.375 L 1351.35 552.375 L 1351.35 501.475 L 1418.25 501.475 L 1418.25 552.375 L 1418.25 552.375 L 1418.25 552.375 L 1418.25 552.375 L 1418.25 552.375 Z  M 1418.25 464.375 L 1351.35 464.375 L 1351.35 413.475 L 1418.25 413.475 L 1418.25 464.375 L 1418.25 464.375 L 1418.25 464.375 L 1418.25 464.375 L 1418.25 464.375 Z  M 1418.25 376.375 L 1351.35 376.375 L 1351.35 325.475 L 1418.25 325.475 L 1418.25 376.375 L 1418.25 376.375 L 1418.25 376.375 L 1418.25 376.375 L 1418.25 376.375 Z  M 1314.25 325.475 L 1239.5 325.475 L 1239.5 376.375 L 1314.25 376.375 L 1314.25 325.475 L 1314.25 325.475 L 1314.25 325.475 L 1314.25 325.475 L 1314.25 325.475 L 1314.25 325.475 Z  M 1314.25 413.475 L 1239.5 413.475 L 1239.5 464.375 L 1239.5 464.375 L 1314.25 464.375 L 1314.25 413.475 L 1314.25 413.475 L 1314.25 413.475 L 1314.25 413.475 L 1314.25 413.475 L 1314.25 413.475 Z  M 1314.25 501.475 L 1239.5 501.475 L 1239.5 552.375 L 1314.25 552.375 L 1314.25 501.475 L 1314.25 501.475 L 1314.25 501.475 L 1314.25 501.475 L 1314.25 501.475 L 1314.25 501.475 Z  M 1314.25 589.475 L 1239.5 589.475 L 1239.5 640.375 L 1239.5 640.375 L 1314.25 640.375 L 1314.25 589.475 L 1314.25 589.475 L 1314.25 589.475 L 1314.25 589.475 L 1314.25 589.475 L 1314.25 589.475 Z  M 1314.25 677.475 L 1239.5 677.475 L 1239.5 728.375 L 1314.25 728.375 L 1314.25 677.475 L 1314.25 677.475 L 1314.25 677.475 L 1314.25 677.475 L 1314.25 677.475 L 1314.25 677.475 Z  M 1314.25 741.625 L 1239.5 741.625 L 1239.5 772.375 L 1239.5 772.375 L 1314.25 772.375 L 1314.25 741.625 L 1314.25 741.625 L 1314.25 741.625 L 1314.25 741.625 L 1314.25 741.625 L 1314.25 741.625 Z  M 1314.25 785.625 L 1239.5 785.625 L 1239.5 816.375 L 1314.25 816.375 L 1314.25 785.625 L 1314.25 785.625 L 1314.25 785.625 L 1314.25 785.625 L 1314.25 785.625 L 1314.25 785.625 Z  M 1314.25 829.625 L 1239.5 829.625 L 1239.5 860.375 L 1239.5 860.375 L 1314.25 860.375 L 1314.25 829.625 L 1314.25 829.625 L 1314.25 829.625 L 1314.25 829.625 L 1314.25 829.625 L 1314.25 829.625 Z  M 1314.25 873.625 L 1239.5 873.625 L 1239.5 904.375 L 1314.25 904.375 L 1314.25 873.625 L 1314.25 873.625 L 1314.25 873.625 L 1314.25 873.625 L 1314.25 873.625 L 1314.25 873.625 Z  M 978.55 488.18 L 978.55 488.18 L 978.55 488.18 L 978.55 488.18 L 978.55 488.18 L 978.55 488.18 L 978.55 488.18 L 978.55 488.18 L 978.55 488.18 L 978.55 488.18 Q 978.252 488.517 978.252 489.171 L 978.252 489.171 L 978.252 489.171 L 978.252 489.171 Q 978.252 489.171 978.252 489.171 Q 978.252 489.171 978.252 489.171 L 978.252 489.171 L 978.252 489.171 L 978.252 489.171 L 978.252 489.171 L 978.252 489.171 L 978.252 489.171 Q 978.252 489.171 978.252 489.171 Q 978.252 489.171 978.252 489.171 Q 978.252 489.874 978.579 490.182 L 978.579 490.182 L 978.579 490.182 Q 978.906 490.489 979.404 490.489 L 979.404 490.489 L 979.404 490.489 Q 979.961 490.489 980.283 490.147 L 980.283 490.147 L 980.283 490.147 L 980.283 490.147 Q 980.605 489.806 980.605 489.171 L 980.605 489.171 L 980.605 489.171 Q 980.605 489.171 980.605 489.171 Q 980.605 489.171 980.605 489.171 Q 980.605 489.171 980.605 489.171 Q 980.605 488.517 980.288 488.18 L 980.288 488.18 L 980.288 488.18 Q 979.971 487.843 979.404 487.843 L 979.404 487.843 L 979.404 487.843 Q 978.848 487.843 978.55 488.18 L 978.55 488.18 L 978.55 488.18 L 978.55 488.18 L 978.55 488.18 L 978.55 488.18 L 978.55 488.18 L 978.55 488.18 L 978.55 488.18 L 978.55 488.18 L 978.55 488.18 L 978.55 488.18 L 978.55 488.18 Z  M 987.49 490.206 L 987.49 490.206 L 987.49 480.03 L 987.49 480.03 L 987.49 480.03 L 987.49 480.03 L 987.49 480.03 Q 987.49 478.761 987.568 477.628 Q 987.363 477.833 987.109 478.058 L 987.109 478.058 L 987.109 478.058 L 987.109 478.058 Q 986.855 478.282 984.785 479.962 L 984.785 479.962 L 984.785 479.962 L 983.926 478.849 L 987.705 475.929 L 987.705 475.929 L 989.072 475.929 L 989.072 475.929 L 989.072 475.929 L 989.072 475.929 L 989.072 475.929 L 989.072 475.929 L 989.072 475.929 L 989.072 475.929 L 989.072 490.206 L 989.072 490.206 L 989.072 490.206 L 987.49 490.206 L 987.49 490.206 L 987.49 490.206 L 987.49 490.206 L 987.49 490.206 L 987.49 490.206 L 987.49 490.206 L 987.49 490.206 L 987.49 490.206 L 987.49 490.206 L 987.49 490.206 L 987.49 490.206 L 987.49 490.206 Z  M 962.744 489.303 L 962.744 489.303 L 962.744 489.303 L 962.744 489.303 L 962.744 489.303 L 962.744 489.303 Q 964.16 488.204 964.16 486.163 L 964.16 486.163 L 964.16 486.163 L 964.16 486.163 L 964.16 486.163 L 964.16 486.163 Q 964.16 484.737 963.33 483.858 L 963.33 483.858 L 963.33 483.858 Q 962.5 482.979 960.781 482.765 L 960.781 482.765 L 960.781 482.687 L 960.781 482.687 Q 962.188 482.394 962.954 481.524 L 962.954 481.524 L 962.954 481.524 Q 963.721 480.655 963.721 479.288 L 963.721 479.288 L 963.721 479.288 L 963.721 479.288 Q 963.721 477.628 962.568 476.676 L 962.568 476.676 L 962.568 476.676 Q 961.416 475.724 959.336 475.724 L 959.336 475.724 L 959.336 475.724 Q 958.066 475.724 956.919 476.119 L 956.919 476.119 L 956.919 476.119 Q 955.771 476.515 954.893 477.208 L 954.893 477.208 L 955.713 478.302 L 955.713 478.302 Q 956.777 477.618 957.607 477.364 L 957.607 477.364 L 957.607 477.364 Q 958.438 477.11 959.375 477.11 L 959.375 477.11 L 959.375 477.11 Q 960.605 477.11 961.323 477.706 L 961.323 477.706 L 961.323 477.706 Q 962.041 478.302 962.041 479.347 L 962.041 479.347 L 962.041 479.347 Q 962.041 480.655 961.064 481.393 L 961.064 481.393 L 961.064 481.393 Q 960.088 482.13 958.418 482.13 L 958.418 482.13 L 956.992 482.13 L 956.992 483.526 L 958.398 483.526 L 958.398 483.526 Q 962.48 483.526 962.48 486.124 L 962.48 486.124 L 962.48 486.124 Q 962.48 489.024 958.779 489.024 L 958.779 489.024 L 958.779 489.024 Q 957.842 489.024 956.792 488.785 L 956.792 488.785 L 956.792 488.785 Q 955.742 488.546 954.814 488.087 L 954.814 488.087 L 954.814 489.63 L 954.814 489.63 Q 955.703 490.06 956.646 490.23 L 956.646 490.23 L 956.646 490.23 Q 957.588 490.401 958.721 490.401 L 958.721 490.401 L 958.721 490.401 Q 961.328 490.401 962.744 489.303 L 962.744 489.303 L 962.744 489.303 L 962.744 489.303 L 962.744 489.303 L 962.744 489.303 L 962.744 489.303 L 962.744 489.303 L 962.744 489.303 L 962.744 489.303 L 962.744 489.303 L 962.744 489.303 L 962.744 489.303 Z  M 975.752 477.228 L 969.912 490.206 L 969.912 490.206 L 969.912 490.206 L 969.912 490.206 L 975.752 477.228 L 975.752 477.228 L 975.752 475.929 L 975.752 475.929 L 975.752 477.228 L 975.752 477.228 L 975.752 477.228 L 975.752 477.228 L 975.752 477.228 L 975.752 477.228 L 975.752 477.228 L 975.752 477.228 L 975.752 477.228 L 975.752 477.228 L 975.752 477.228 L 975.752 477.228 L 975.752 477.228 L 975.752 477.228 Z  M 980.605 489.171 L 980.605 489.171 L 980.605 489.171 L 980.605 489.171 Q 980.605 489.171 980.605 489.171 Q 980.605 489.171 980.605 489.171 Q 980.605 489.171 980.605 489.171 Q 980.605 489.806 980.283 490.147 L 980.283 490.147 L 980.283 490.147 L 980.283 490.147 L 980.283 490.147 Q 980.605 489.806 980.605 489.171 Q 980.605 489.171 980.605 489.171 L 980.605 489.171 L 980.605 489.171 L 980.605 489.171 L 980.605 489.171 L 980.605 489.171 L 980.605 489.171 L 980.605 489.171 L 980.605 489.171 L 980.605 489.171 L 980.605 489.171 L 980.605 489.171 L 980.605 489.171 L 980.605 489.171 Z  M 969.912 490.206 L 968.115 490.206 L 968.115 490.206 L 974.033 477.423 L 966.25 477.423 L 966.25 475.929 L 975.752 475.929 L 975.752 477.228 L 969.912 490.206 L 969.912 490.206 L 969.912 490.206 L 969.912 490.206 L 969.912 490.206 L 969.912 490.206 L 969.912 490.206 L 969.912 490.206 L 969.912 490.206 L 969.912 490.206 L 969.912 490.206 L 969.912 490.206 L 969.912 490.206 L 969.912 490.206 Z " fill-rule="evenodd" fill="rgb(255,255,255)"/></g><ellipse vector-effect="non-scaling-stroke" cx="1575" cy="834.4999999999998" rx="306" ry="361.4999999999997" fill="rgb(255,255,255)"/><ellipse vector-effect="non-scaling-stroke" cx="1577.5000000000002" cy="674.4999999999995" rx="216.00000000000045" ry="163.49999999999955" fill="rgb(193,123,255)"/><path d=" M 1431.988 644.72 C 1429.035 626.684 1439.354 610.454 1462.59 601.753 C 1495.316 589.499 1522.414 612.612 1522.219 632.817 C 1521.704 686.168 1506.092 680.431 1504.949 718.256 Q 1504.569 730.845 1509.843 751.688 L 1485.993 758.428 Q 1480.233 740.267 1479.363 728.322 C 1479.009 723.46 1478.157 706.001 1482.869 694.44 C 1503.35 644.2 1490.326 631.11 1477.469 628.343 C 1459.375 624.448 1451.983 651.349 1443.866 652.982 C 1435.75 654.615 1432.751 649.38 1431.988 644.72 Z  M 1489.573 784.087 C 1488.127 775.258 1494.122 766.916 1502.951 765.47 C 1511.781 764.024 1520.123 770.019 1521.568 778.848 C 1523.014 787.678 1517.019 796.02 1508.19 797.465 C 1499.361 798.911 1491.019 792.916 1489.573 784.087 Z " fill-rule="evenodd" fill="rgb(255,255,255)"/><path d=" M 1641.937 613.997 C 1648.747 597.037 1665.978 588.493 1690.363 593.077 C 1724.706 599.534 1735.925 633.336 1725.298 650.523 C 1697.24 695.902 1686.853 682.912 1666.294 714.682 Q 1659.451 725.256 1653.174 745.819 L 1629.28 739.24 Q 1633.753 720.72 1639.192 710.05 C 1641.406 705.706 1649.715 690.327 1659.731 682.876 C 1703.262 650.494 1698.896 632.552 1689.329 623.529 C 1675.864 610.83 1655.613 630.019 1647.823 627.214 C 1640.034 624.41 1640.178 618.378 1641.937 613.997 Z  M 1619.059 763.046 C 1622.393 754.743 1631.84 750.709 1640.143 754.043 C 1648.445 757.377 1652.479 766.825 1649.146 775.127 C 1645.812 783.43 1636.364 787.463 1628.062 784.13 C 1619.759 780.796 1615.725 771.348 1619.059 763.046 Z " fill-rule="evenodd" fill="rgb(255,255,255)"/><path d=" M 1518.448 581.743 C 1518.448 559.569 1533.986 542.158 1563.514 536.295 C 1605.102 528.038 1633.017 561.025 1628.822 585.181 C 1617.746 648.96 1600.178 639.031 1591.394 684.097 Q 1588.471 699.096 1590.7 725.087 L 1560.821 728.482 Q 1557.484 705.607 1558.784 691.134 C 1559.313 685.242 1561.716 664.17 1569.625 651.252 C 1603.997 595.11 1590.969 576.884 1576.118 571.05 C 1555.216 562.839 1541.09 593.601 1531.051 593.965 C 1521.013 594.328 1518.448 587.472 1518.448 581.743 Z  M 1560.077 759.907 C 1560.077 749.051 1568.89 740.238 1579.746 740.238 C 1590.601 740.238 1599.414 749.051 1599.414 759.907 C 1599.414 770.762 1590.601 779.576 1579.746 779.576 C 1568.89 779.576 1560.077 770.762 1560.077 759.907 Z " fill-rule="evenodd" fill="rgb(255,255,255)"/></g></g></svg>