<?xml version="1.0" encoding="UTF-8" standalone="no"?><!-- Generator: Gravit.io --><svg xmlns="http://www.w3.org/2000/svg" xmlns:xlink="http://www.w3.org/1999/xlink" style="isolation:isolate" viewBox="1206.562 306.687 746 746" width="746pt" height="746pt"><defs><clipPath id="_clipPath_vQKqMoOk2ItY2KpvQ2j8TYpwZ38eHLG5"><rect x="1206.562" y="306.687" width="746" height="746"/></clipPath></defs><g clip-path="url(#_clipPath_vQKqMoOk2ItY2KpvQ2j8TYpwZ38eHLG5)"><circle vector-effect="non-scaling-stroke" cx="1579.562474966144" cy="679.6870243567491" r="373.0000000000002" fill="rgb(142,70,206)"/><clipPath id="_clipPath_fSLASzhZlDQqYq8kGvBzKt0yscWJMLVI"><circle vector-effect="non-scaling-stroke" cx="1579.562474966144" cy="679.6870243567491" r="373.0000000000002" fill="rgb(142,70,206)"/></clipPath><g clip-path="url(#_clipPath_fSLASzhZlDQqYq8kGvBzKt0yscWJMLVI)"><circle vector-effect="non-scaling-stroke" cx="1581.562474966145" cy="679.8414120919238" r="325" fill="rgb(235,235,235)"/><clipPath id="_clipPath_k4RUfk2DNZW47NoBkSAWp9R0Gj0YfXdB"><circle vector-effect="non-scaling-stroke" cx="1581.562474966145" cy="679.8414120919238" r="325" fill="rgb(235,235,235)"/></clipPath><g clip-path="url(#_clipPath_k4RUfk2DNZW47NoBkSAWp9R0Gj0YfXdB)"><rect x="1213.562" y="338.841" width="733" height="740" transform="matrix(1,0,0,1,0,0)" fill="rgb(193,123,255)"/><clipPath id="_clipPath_HvqcNTEhLrtl5Fy3iyrFm2DZW9dgnKMb"><rect x="1213.562" y="338.841" width="733" height="740" transform="matrix(1,0,0,1,0,0)" fill="rgb(193,123,255)"/></clipPath><g clip-path="url(#_clipPath_HvqcNTEhLrtl5Fy3iyrFm2DZW9dgnKMb)"><path d=" M 1885.912 771.216 L 1955.437 771.216 L 1955.437 808.316 L 1778.062 808.316 L 1778.062 859.216 L 1955.437 859.216 L 1955.437 872.466 L 1778.062 872.466 L 1778.062 903.216 L 1955.437 903.216 L 1955.437 916.466 L 1778.062 916.466 L 1778.062 947.216 L 1955.437 947.216 L 1955.437 960.466 L 1778.062 960.466 L 1778.062 991.216 L 1955.437 991.216 L 1955.437 1004.466 L 1778.062 1004.466 L 1778.062 1035.216 L 1955.437 1035.216 L 1955.437 1048.466 L 1778.062 1048.466 L 1778.062 1089.841 L 1740.937 1089.841 L 1740.937 1048.466 L 1675.912 1048.466 L 1675.912 1089.841 L 1638.812 1089.841 L 1638.812 1048.466 L 1638.812 1048.466 L 1570.912 1048.466 L 1570.912 1091.841 L 1533.812 1091.841 L 1533.812 1048.466 L 1461.912 1048.466 L 1461.912 1088.841 L 1424.812 1088.841 L 1424.812 1048.466 L 1424.812 1048.466 L 1357.912 1048.466 L 1357.912 1088.841 L 1320.812 1088.841 L 1320.812 1048.466 L 1246.062 1048.466 L 1246.062 1088.841 L 1232.812 1088.841 L 1232.812 1048.466 L 1201.437 1048.466 L 1201.437 1035.216 L 1232.812 1035.216 L 1232.812 1035.216 L 1232.812 1004.466 L 1201.437 1004.466 L 1201.437 991.216 L 1232.812 991.216 L 1232.812 960.466 L 1201.437 960.466 L 1201.437 947.216 L 1232.812 947.216 L 1232.812 947.216 L 1232.812 916.466 L 1201.437 916.466 L 1201.437 903.216 L 1232.812 903.216 L 1232.812 872.466 L 1201.437 872.466 L 1201.437 859.216 L 1232.812 859.216 L 1232.812 859.216 L 1232.812 808.316 L 1201.437 808.316 L 1201.437 771.216 L 1232.812 771.216 L 1232.812 720.316 L 1201.437 720.316 L 1201.437 683.216 L 1232.812 683.216 L 1232.812 683.216 L 1232.812 683.216 L 1232.812 683.216 L 1232.812 632.316 L 1201.437 632.316 L 1201.437 595.216 L 1232.812 595.216 L 1232.812 544.316 L 1201.437 544.316 L 1201.437 507.216 L 1232.812 507.216 L 1232.812 456.316 L 1201.437 456.316 L 1201.437 419.216 L 1232.812 419.216 L 1232.812 334.841 L 1246.062 334.841 L 1246.062 419.216 L 1320.812 419.216 L 1320.812 419.216 L 1320.812 334.841 L 1357.912 334.841 L 1357.912 419.216 L 1424.812 419.216 L 1424.812 334.841 L 1461.912 334.841 L 1461.912 419.216 L 1533.812 419.216 L 1533.812 419.216 L 1533.812 337.841 L 1570.912 337.841 L 1570.912 419.216 L 1638.812 419.216 L 1638.812 335.841 L 1675.912 335.841 L 1675.912 419.216 L 1740.937 419.216 L 1740.937 419.216 L 1740.937 335.841 L 1778.062 335.841 L 1778.062 419.216 L 1848.812 419.216 L 1848.812 334.841 L 1885.912 334.841 L 1885.912 419.216 L 1955.437 419.216 L 1955.437 456.316 L 1885.912 456.316 L 1885.912 507.216 L 1955.437 507.216 L 1955.437 544.316 L 1885.912 544.316 L 1885.912 595.216 L 1955.437 595.216 L 1955.437 632.316 L 1885.912 632.316 L 1885.912 683.216 L 1955.437 683.216 L 1955.437 720.316 L 1885.912 720.316 L 1885.912 771.216 Z  M 1848.812 771.216 L 1778.062 771.216 L 1778.062 720.316 L 1848.812 720.316 L 1848.812 771.216 Z  M 1848.812 683.216 L 1778.062 683.216 L 1778.062 632.316 L 1848.812 632.316 L 1848.812 683.216 Z  M 1848.812 595.216 L 1778.062 595.216 L 1778.062 544.316 L 1848.812 544.316 L 1848.812 595.216 Z  M 1848.812 507.216 L 1778.062 507.216 L 1778.062 456.316 L 1848.812 456.316 L 1848.812 507.216 Z  M 1740.937 456.316 L 1675.912 456.316 L 1675.912 507.216 L 1740.937 507.216 L 1740.937 456.316 L 1740.937 456.316 Z  M 1740.937 544.316 L 1675.912 544.316 L 1675.912 595.216 L 1740.937 595.216 L 1740.937 544.316 L 1740.937 544.316 Z  M 1740.937 632.316 L 1675.912 632.316 L 1675.912 683.216 L 1740.937 683.216 L 1740.937 632.316 L 1740.937 632.316 Z  M 1740.937 720.316 L 1675.912 720.316 L 1675.912 771.216 L 1740.937 771.216 L 1740.937 720.316 L 1740.937 720.316 Z  M 1740.937 808.316 L 1675.912 808.316 L 1675.912 859.216 L 1740.937 859.216 L 1740.937 808.316 L 1740.937 808.316 Z  M 1740.937 872.466 L 1675.912 872.466 L 1675.912 903.216 L 1740.937 903.216 L 1740.937 872.466 L 1740.937 872.466 Z  M 1740.937 916.466 L 1675.912 916.466 L 1675.912 947.216 L 1740.937 947.216 L 1740.937 916.466 L 1740.937 916.466 Z  M 1740.937 960.466 L 1675.912 960.466 L 1675.912 991.216 L 1740.937 991.216 L 1740.937 960.466 L 1740.937 960.466 Z  M 1740.937 1004.466 L 1675.912 1004.466 L 1675.912 1035.216 L 1740.937 1035.216 L 1740.937 1004.466 L 1740.937 1004.466 Z  M 1638.812 1035.216 L 1570.912 1035.216 L 1570.912 1004.466 L 1638.812 1004.466 L 1638.812 1035.216 L 1638.812 1035.216 L 1638.812 1035.216 Z  M 1638.812 991.216 L 1570.912 991.216 L 1570.912 960.466 L 1638.812 960.466 L 1638.812 991.216 L 1638.812 991.216 L 1638.812 991.216 Z  M 1638.812 947.216 L 1570.912 947.216 L 1570.912 916.466 L 1638.812 916.466 L 1638.812 947.216 L 1638.812 947.216 L 1638.812 947.216 Z  M 1638.812 903.216 L 1570.912 903.216 L 1570.912 872.466 L 1638.812 872.466 L 1638.812 903.216 L 1638.812 903.216 L 1638.812 903.216 Z  M 1638.812 859.216 L 1570.912 859.216 L 1570.912 808.316 L 1638.812 808.316 L 1638.812 859.216 L 1638.812 859.216 L 1638.812 859.216 Z  M 1638.812 771.216 L 1570.912 771.216 L 1570.912 720.316 L 1638.812 720.316 L 1638.812 771.216 L 1638.812 771.216 L 1638.812 771.216 Z  M 1638.812 683.216 L 1570.912 683.216 L 1570.912 632.316 L 1638.812 632.316 L 1638.812 683.216 L 1638.812 683.216 L 1638.812 683.216 Z  M 1638.812 595.216 L 1570.912 595.216 L 1570.912 544.316 L 1638.812 544.316 L 1638.812 595.216 L 1638.812 595.216 L 1638.812 595.216 Z  M 1638.812 507.216 L 1570.912 507.216 L 1570.912 456.316 L 1638.812 456.316 L 1638.812 507.216 L 1638.812 507.216 L 1638.812 507.216 Z  M 1533.812 456.316 L 1461.912 456.316 L 1461.912 507.216 L 1533.812 507.216 L 1533.812 456.316 L 1533.812 456.316 L 1533.812 456.316 L 1533.812 456.316 Z  M 1533.812 544.316 L 1461.912 544.316 L 1461.912 595.216 L 1533.812 595.216 L 1533.812 544.316 L 1533.812 544.316 L 1533.812 544.316 L 1533.812 544.316 Z  M 1533.812 632.316 L 1461.912 632.316 L 1461.912 683.216 L 1533.812 683.216 L 1533.812 632.316 L 1533.812 632.316 L 1533.812 632.316 L 1533.812 632.316 Z  M 1533.812 720.316 L 1461.912 720.316 L 1461.912 771.216 L 1533.812 771.216 L 1533.812 720.316 L 1533.812 720.316 L 1533.812 720.316 L 1533.812 720.316 Z  M 1533.812 808.316 L 1461.912 808.316 L 1461.912 859.216 L 1533.812 859.216 L 1533.812 808.316 L 1533.812 808.316 L 1533.812 808.316 L 1533.812 808.316 Z  M 1533.812 872.466 L 1461.912 872.466 L 1461.912 903.216 L 1533.812 903.216 L 1533.812 872.466 L 1533.812 872.466 L 1533.812 872.466 L 1533.812 872.466 Z  M 1533.812 916.466 L 1461.912 916.466 L 1461.912 947.216 L 1533.812 947.216 L 1533.812 916.466 L 1533.812 916.466 L 1533.812 916.466 L 1533.812 916.466 Z  M 1533.812 960.466 L 1461.912 960.466 L 1461.912 991.216 L 1533.812 991.216 L 1533.812 960.466 L 1533.812 960.466 L 1533.812 960.466 L 1533.812 960.466 Z  M 1533.812 1004.466 L 1461.912 1004.466 L 1461.912 1035.216 L 1533.812 1035.216 L 1533.812 1004.466 L 1533.812 1004.466 L 1533.812 1004.466 L 1533.812 1004.466 Z  M 1424.812 1035.216 L 1357.912 1035.216 L 1357.912 1004.466 L 1424.812 1004.466 L 1424.812 1035.216 L 1424.812 1035.216 L 1424.812 1035.216 L 1424.812 1035.216 L 1424.812 1035.216 Z  M 1424.812 991.216 L 1357.912 991.216 L 1357.912 960.466 L 1424.812 960.466 L 1424.812 991.216 L 1424.812 991.216 L 1424.812 991.216 L 1424.812 991.216 L 1424.812 991.216 Z  M 1424.812 947.216 L 1357.912 947.216 L 1357.912 916.466 L 1424.812 916.466 L 1424.812 947.216 L 1424.812 947.216 L 1424.812 947.216 L 1424.812 947.216 L 1424.812 947.216 Z  M 1424.812 903.216 L 1357.912 903.216 L 1357.912 872.466 L 1424.812 872.466 L 1424.812 903.216 L 1424.812 903.216 L 1424.812 903.216 L 1424.812 903.216 L 1424.812 903.216 Z  M 1424.812 859.216 L 1357.912 859.216 L 1357.912 808.316 L 1424.812 808.316 L 1424.812 859.216 L 1424.812 859.216 L 1424.812 859.216 L 1424.812 859.216 L 1424.812 859.216 Z  M 1424.812 771.216 L 1357.912 771.216 L 1357.912 720.316 L 1424.812 720.316 L 1424.812 771.216 L 1424.812 771.216 L 1424.812 771.216 L 1424.812 771.216 L 1424.812 771.216 Z  M 1424.812 683.216 L 1357.912 683.216 L 1357.912 632.316 L 1424.812 632.316 L 1424.812 683.216 L 1424.812 683.216 L 1424.812 683.216 L 1424.812 683.216 L 1424.812 683.216 Z  M 1424.812 595.216 L 1357.912 595.216 L 1357.912 544.316 L 1424.812 544.316 L 1424.812 595.216 L 1424.812 595.216 L 1424.812 595.216 L 1424.812 595.216 L 1424.812 595.216 Z  M 1424.812 507.216 L 1357.912 507.216 L 1357.912 456.316 L 1424.812 456.316 L 1424.812 507.216 L 1424.812 507.216 L 1424.812 507.216 L 1424.812 507.216 L 1424.812 507.216 Z  M 1320.812 456.316 L 1246.062 456.316 L 1246.062 507.216 L 1320.812 507.216 L 1320.812 456.316 L 1320.812 456.316 L 1320.812 456.316 L 1320.812 456.316 L 1320.812 456.316 L 1320.812 456.316 Z  M 1320.812 544.316 L 1246.062 544.316 L 1246.062 595.216 L 1246.062 595.216 L 1320.812 595.216 L 1320.812 544.316 L 1320.812 544.316 L 1320.812 544.316 L 1320.812 544.316 L 1320.812 544.316 L 1320.812 544.316 Z  M 1320.812 632.316 L 1246.062 632.316 L 1246.062 683.216 L 1320.812 683.216 L 1320.812 632.316 L 1320.812 632.316 L 1320.812 632.316 L 1320.812 632.316 L 1320.812 632.316 L 1320.812 632.316 Z  M 1320.812 720.316 L 1246.062 720.316 L 1246.062 771.216 L 1246.062 771.216 L 1320.812 771.216 L 1320.812 720.316 L 1320.812 720.316 L 1320.812 720.316 L 1320.812 720.316 L 1320.812 720.316 L 1320.812 720.316 Z  M 1320.812 808.316 L 1246.062 808.316 L 1246.062 859.216 L 1320.812 859.216 L 1320.812 808.316 L 1320.812 808.316 L 1320.812 808.316 L 1320.812 808.316 L 1320.812 808.316 L 1320.812 808.316 Z  M 1320.812 872.466 L 1246.062 872.466 L 1246.062 903.216 L 1246.062 903.216 L 1320.812 903.216 L 1320.812 872.466 L 1320.812 872.466 L 1320.812 872.466 L 1320.812 872.466 L 1320.812 872.466 L 1320.812 872.466 Z  M 1320.812 916.466 L 1246.062 916.466 L 1246.062 947.216 L 1320.812 947.216 L 1320.812 916.466 L 1320.812 916.466 L 1320.812 916.466 L 1320.812 916.466 L 1320.812 916.466 L 1320.812 916.466 Z  M 1320.812 960.466 L 1246.062 960.466 L 1246.062 991.216 L 1246.062 991.216 L 1320.812 991.216 L 1320.812 960.466 L 1320.812 960.466 L 1320.812 960.466 L 1320.812 960.466 L 1320.812 960.466 L 1320.812 960.466 Z  M 1320.812 1004.466 L 1246.062 1004.466 L 1246.062 1035.216 L 1320.812 1035.216 L 1320.812 1004.466 L 1320.812 1004.466 L 1320.812 1004.466 L 1320.812 1004.466 L 1320.812 1004.466 L 1320.812 1004.466 Z  M 985.112 619.021 L 985.112 619.021 L 985.112 619.021 L 985.112 619.021 L 985.112 619.021 L 985.112 619.021 L 985.112 619.021 L 985.112 619.021 L 985.112 619.021 L 985.112 619.021 Q 984.814 619.358 984.814 620.012 L 984.814 620.012 L 984.814 620.012 L 984.814 620.012 Q 984.814 620.012 984.814 620.012 Q 984.814 620.012 984.814 620.012 L 984.814 620.012 L 984.814 620.012 L 984.814 620.012 L 984.814 620.012 L 984.814 620.012 L 984.814 620.012 Q 984.814 620.012 984.814 620.012 Q 984.814 620.012 984.814 620.012 Q 984.814 620.715 985.142 621.023 L 985.142 621.023 L 985.142 621.023 Q 985.469 621.331 985.967 621.331 L 985.967 621.331 L 985.967 621.331 Q 986.523 621.331 986.846 620.989 L 986.846 620.989 L 986.846 620.989 L 986.846 620.989 Q 987.168 620.647 987.168 620.012 L 987.168 620.012 L 987.168 620.012 Q 987.168 620.012 987.168 620.012 Q 987.168 620.012 987.168 620.012 Q 987.168 620.012 987.168 620.012 Q 987.168 619.358 986.851 619.021 L 986.851 619.021 L 986.851 619.021 Q 986.533 618.684 985.967 618.684 L 985.967 618.684 L 985.967 618.684 Q 985.41 618.684 985.112 619.021 L 985.112 619.021 L 985.112 619.021 L 985.112 619.021 L 985.112 619.021 L 985.112 619.021 L 985.112 619.021 L 985.112 619.021 L 985.112 619.021 L 985.112 619.021 L 985.112 619.021 L 985.112 619.021 L 985.112 619.021 Z  M 994.053 621.047 L 994.053 621.047 L 994.053 610.872 L 994.053 610.872 L 994.053 610.872 L 994.053 610.872 L 994.053 610.872 Q 994.053 609.602 994.131 608.469 Q 993.926 608.674 993.672 608.899 L 993.672 608.899 L 993.672 608.899 L 993.672 608.899 Q 993.418 609.124 991.348 610.803 L 991.348 610.803 L 991.348 610.803 L 990.488 609.69 L 994.268 606.77 L 994.268 606.77 L 995.635 606.77 L 995.635 606.77 L 995.635 606.77 L 995.635 606.77 L 995.635 606.77 L 995.635 606.77 L 995.635 606.77 L 995.635 606.77 L 995.635 621.047 L 995.635 621.047 L 995.635 621.047 L 994.053 621.047 L 994.053 621.047 L 994.053 621.047 L 994.053 621.047 L 994.053 621.047 L 994.053 621.047 L 994.053 621.047 L 994.053 621.047 L 994.053 621.047 L 994.053 621.047 L 994.053 621.047 L 994.053 621.047 L 994.053 621.047 Z  M 969.307 620.144 L 969.307 620.144 L 969.307 620.144 L 969.307 620.144 L 969.307 620.144 L 969.307 620.144 Q 970.723 619.046 970.723 617.004 L 970.723 617.004 L 970.723 617.004 L 970.723 617.004 L 970.723 617.004 L 970.723 617.004 Q 970.723 615.579 969.893 614.7 L 969.893 614.7 L 969.893 614.7 Q 969.062 613.821 967.344 613.606 L 967.344 613.606 L 967.344 613.528 L 967.344 613.528 Q 968.75 613.235 969.517 612.366 L 969.517 612.366 L 969.517 612.366 Q 970.283 611.497 970.283 610.129 L 970.283 610.129 L 970.283 610.129 L 970.283 610.129 Q 970.283 608.469 969.131 607.517 L 969.131 607.517 L 969.131 607.517 Q 967.978 606.565 965.898 606.565 L 965.898 606.565 L 965.898 606.565 Q 964.629 606.565 963.481 606.961 L 963.481 606.961 L 963.481 606.961 Q 962.334 607.356 961.455 608.049 L 961.455 608.049 L 962.275 609.143 L 962.275 609.143 Q 963.34 608.46 964.17 608.206 L 964.17 608.206 L 964.17 608.206 Q 965 607.952 965.937 607.952 L 965.937 607.952 L 965.937 607.952 Q 967.168 607.952 967.886 608.547 L 967.886 608.547 L 967.886 608.547 Q 968.603 609.143 968.603 610.188 L 968.603 610.188 L 968.603 610.188 Q 968.603 611.497 967.627 612.234 L 967.627 612.234 L 967.627 612.234 Q 966.65 612.971 964.98 612.971 L 964.98 612.971 L 963.555 612.971 L 963.555 614.368 L 964.961 614.368 L 964.961 614.368 Q 969.043 614.368 969.043 616.965 L 969.043 616.965 L 969.043 616.965 Q 969.043 619.866 965.342 619.866 L 965.342 619.866 L 965.342 619.866 Q 964.404 619.866 963.354 619.627 L 963.354 619.627 L 963.354 619.627 Q 962.305 619.387 961.377 618.928 L 961.377 618.928 L 961.377 620.471 L 961.377 620.471 Q 962.266 620.901 963.208 621.072 L 963.208 621.072 L 963.208 621.072 Q 964.15 621.243 965.283 621.243 L 965.283 621.243 L 965.283 621.243 Q 967.891 621.243 969.307 620.144 L 969.307 620.144 L 969.307 620.144 L 969.307 620.144 L 969.307 620.144 L 969.307 620.144 L 969.307 620.144 L 969.307 620.144 L 969.307 620.144 L 969.307 620.144 L 969.307 620.144 L 969.307 620.144 L 969.307 620.144 Z  M 982.314 608.069 L 976.475 621.047 L 976.475 621.047 L 976.475 621.047 L 976.475 621.047 L 982.314 608.069 L 982.314 608.069 L 982.314 606.77 L 982.314 606.77 L 982.314 608.069 L 982.314 608.069 L 982.314 608.069 L 982.314 608.069 L 982.314 608.069 L 982.314 608.069 L 982.314 608.069 L 982.314 608.069 L 982.314 608.069 L 982.314 608.069 L 982.314 608.069 L 982.314 608.069 L 982.314 608.069 L 982.314 608.069 Z  M 987.168 620.012 L 987.168 620.012 L 987.168 620.012 L 987.168 620.012 Q 987.168 620.012 987.168 620.012 Q 987.168 620.012 987.168 620.012 Q 987.168 620.012 987.168 620.012 Q 987.168 620.647 986.846 620.989 L 986.846 620.989 L 986.846 620.989 L 986.846 620.989 L 986.846 620.989 Q 987.168 620.647 987.168 620.012 Q 987.168 620.012 987.168 620.012 L 987.168 620.012 L 987.168 620.012 L 987.168 620.012 L 987.168 620.012 L 987.168 620.012 L 987.168 620.012 L 987.168 620.012 L 987.168 620.012 L 987.168 620.012 L 987.168 620.012 L 987.168 620.012 L 987.168 620.012 L 987.168 620.012 Z  M 976.475 621.047 L 974.678 621.047 L 974.678 621.047 L 980.596 608.264 L 972.812 608.264 L 972.812 606.77 L 982.314 606.77 L 982.314 608.069 L 976.475 621.047 L 976.475 621.047 L 976.475 621.047 L 976.475 621.047 L 976.475 621.047 L 976.475 621.047 L 976.475 621.047 L 976.475 621.047 L 976.475 621.047 L 976.475 621.047 L 976.475 621.047 L 976.475 621.047 L 976.475 621.047 L 976.475 621.047 Z " fill-rule="evenodd" fill="rgb(255,255,255)"/></g><ellipse vector-effect="non-scaling-stroke" cx="1580.5624749661447" cy="1005.3414120919234" rx="312" ry="361.49999999999966" fill="rgb(142,70,206)"/><ellipse vector-effect="non-scaling-stroke" cx="1582.4939632646058" cy="1016.3414120919236" rx="263.4364950695224" ry="319.49999999999966" fill="rgb(193,123,255)"/><ellipse vector-effect="non-scaling-stroke" cx="1583.616494669421" cy="853.3723774681373" rx="151.5" ry="112.13385826771571" fill="rgb(255,255,255)"/><path d=" M 1488.926 844.077 C 1486.863 831.477 1494.072 820.138 1510.305 814.06 C 1533.168 805.499 1552.098 821.646 1551.962 835.762 C 1551.602 873.033 1540.696 869.025 1539.897 895.45 Q 1539.632 904.245 1543.316 918.806 L 1526.655 923.515 Q 1522.63 910.827 1522.023 902.483 C 1521.775 899.086 1521.18 886.888 1524.472 878.812 C 1538.78 843.713 1529.682 834.569 1520.7 832.635 C 1508.059 829.915 1502.894 848.708 1497.224 849.849 C 1491.554 850.989 1489.459 847.332 1488.926 844.077 Z  M 1529.155 941.44 C 1528.145 935.272 1532.333 929.444 1538.502 928.434 C 1544.67 927.425 1550.498 931.612 1551.508 937.781 C 1552.518 943.949 1548.33 949.777 1542.161 950.787 C 1535.993 951.797 1530.165 947.609 1529.155 941.44 Z " fill-rule="evenodd" fill="rgb(193,123,255)"/><path d=" M 1620.23 829.599 C 1624.987 817.751 1637.025 811.782 1654.06 814.985 C 1678.053 819.495 1685.891 843.11 1678.467 855.117 C 1658.865 886.82 1651.608 877.744 1637.246 899.939 Q 1632.465 907.327 1628.08 921.692 L 1611.387 917.096 Q 1614.512 904.157 1618.312 896.703 C 1619.858 893.669 1625.663 882.925 1632.661 877.719 C 1663.072 855.096 1660.022 842.562 1653.338 836.259 C 1643.931 827.387 1629.783 840.793 1624.342 838.833 C 1618.9 836.874 1619.001 832.66 1620.23 829.599 Z  M 1604.247 933.727 C 1606.576 927.927 1613.176 925.109 1618.976 927.438 C 1624.776 929.767 1627.595 936.367 1625.266 942.167 C 1622.936 947.967 1616.336 950.786 1610.536 948.456 C 1604.736 946.127 1601.918 939.527 1604.247 933.727 Z " fill-rule="evenodd" fill="rgb(193,123,255)"/><path d=" M 1544.516 793.447 C 1545.54 777.99 1557.175 766.57 1578.029 763.846 C 1607.4 760.01 1625.337 784.293 1621.298 800.938 C 1610.633 844.887 1598.845 837.154 1590.641 868.163 Q 1587.911 878.484 1588.265 896.705 L 1567.281 897.693 Q 1566.011 881.593 1567.585 871.564 C 1568.225 867.481 1570.873 852.903 1576.982 844.263 C 1603.534 806.714 1595.294 793.407 1585.21 788.655 C 1571.019 781.966 1559.752 802.758 1552.738 802.548 C 1545.723 802.338 1544.252 797.441 1544.516 793.447 Z  M 1565.311 919.564 C 1565.813 911.997 1572.363 906.26 1579.93 906.761 C 1587.497 907.262 1593.234 913.813 1592.733 921.38 C 1592.232 928.947 1585.682 934.684 1578.114 934.183 C 1570.547 933.682 1564.81 927.131 1565.311 919.564 Z " fill-rule="evenodd" fill="rgb(193,123,255)"/></g><rect x="1826.016" y="846.284" width="34.729" height="53.294" transform="matrix(1,0,0,1,0,0)" fill="rgb(142,70,206)"/><rect x="1299.546" y="844.274" width="39.023" height="55.547" transform="matrix(1,0,0,1,0,0)" fill="rgb(142,70,206)"/></g></g></svg>